<svg id="Layer_1" data-name="Layer 1" xmlns="http://www.w3.org/2000/svg" viewBox="0 0 129.24 114.92"><defs><style>.cls-1{fill:#517c8e;}.cls-2{fill:#686156;}.cls-3{fill:#84c1a5;}.cls-4{fill:#f4793b;}.cls-5{fill:#f4b311;}.cls-6{fill:#b2a49e;}.cls-7{fill:#c16425;}</style></defs><title>dasmoto-logo</title><path class="cls-1" d="M123.13,51.59a1.78,1.78,0,0,0,.26-.22l5.49-5.73a1.3,1.3,0,0,0-1.15-2.18l-7.83,1.33a1,1,0,0,0-.28.09,1.61,1.61,0,0,0-.59.21l-8.79,4.66s0,0,0,0l0,0a.22.22,0,0,0,0,.08.13.13,0,0,0,0,.08l.06.08.08.07.13.06h0L120,48.29a.5.5,0,0,1,.24,1L97.76,56.37,1.39,107.49a2.53,2.53,0,0,0-1,3.43l1.24,2.34A2.54,2.54,0,0,0,5,114.32l117.64-62.4A2.56,2.56,0,0,0,123.13,51.59Z"/><path class="cls-2" d="M21.59,56.28a9.8,9.8,0,0,1-3.55.37,9,9,0,0,1-3.65-1c-1.88-1-1.56-1.76-4.19-3.58-1-.73-2.28-1.43-2.72-1.68-.21-.12-1.24-.71-2-1.08A18,18,0,0,0,0,47.74a20.79,20.79,0,0,1,4.66-3A15.3,15.3,0,0,1,9.24,43.3a13.76,13.76,0,0,1,4.45.11,12.29,12.29,0,0,1,2.51.74,14.3,14.3,0,0,1,7.11,6.22c.22.42,1.18,2.41,1.18,2.41h0v.06l-1.95,3.42Z"/><path class="cls-3" d="M26.69,50.68l4.43,2.71L128.74,113a1,1,0,0,1-1,1.78L26.46,61.58l-4.67-2.46a3.29,3.29,0,0,1-.93-3.1l2.57-4.53A3.18,3.18,0,0,1,25,50.62,3.27,3.27,0,0,1,26.69,50.68Z"/><path class="cls-4" d="M58.38,58.69a9.9,9.9,0,1,0,.33-14A9.9,9.9,0,0,0,58.38,58.69Zm8.23-1.42a1.69,1.69,0,1,1,0-2.4A1.69,1.69,0,0,1,66.61,57.27Zm-6.48-4.35a1.69,1.69,0,1,1,2.39.06A1.7,1.7,0,0,1,60.13,52.92Zm10.77.25A1.69,1.69,0,1,1,71,50.78,1.69,1.69,0,0,1,70.9,53.17Zm-6.48-4.34a1.69,1.69,0,1,1,2.39.06A1.7,1.7,0,0,1,64.42,48.83Z"/><path class="cls-5" d="M59.43,57.64a8.42,8.42,0,1,0,.29-11.89A8.42,8.42,0,0,0,59.43,57.64Zm9.07-4.52a1.7,1.7,0,1,1,2.4.05A1.69,1.69,0,0,1,68.5,53.12Zm-4.08-4.29a1.69,1.69,0,1,1,2.39.06A1.7,1.7,0,0,1,64.42,48.83Zm-.2,8.37a1.69,1.69,0,1,1,2.39.07A1.68,1.68,0,0,1,64.22,57.2Zm-4.09-4.28a1.69,1.69,0,1,1,2.39.06A1.7,1.7,0,0,1,60.13,52.92Z"/><path class="cls-6" d="M99.21,85.75a16.71,16.71,0,0,1,9.14-4.11c.51,0,1-.07,1.48-.07V74.65c-.48,0-1,0-1.48-.06a16.79,16.79,0,0,1-9.14-4.12A20.56,20.56,0,0,1,97,72.76a28,28,0,0,1-8.21,5.09H99a1.48,1.48,0,1,1,0,.52H88.83A28.18,28.18,0,0,1,97,83.46,21.47,21.47,0,0,1,99.21,85.75Z"/><polygon class="cls-6" points="112.49 83.9 112.49 72.32 110.12 74.64 110.12 81.58 112.49 83.9"/><path class="cls-6" d="M32.5,85.75a16.71,16.71,0,0,0-9.14-4.11c-.51,0-1-.07-1.48-.07V74.65c.48,0,1,0,1.48-.06a16.79,16.79,0,0,0,9.14-4.12,20.56,20.56,0,0,0,2.17,2.29,28,28,0,0,0,8.21,5.09H32.7a1.48,1.48,0,1,0,0,.52H42.88a28.18,28.18,0,0,0-8.21,5.09A21.47,21.47,0,0,0,32.5,85.75Z"/><polygon class="cls-6" points="19.22 83.9 19.22 72.32 21.59 74.64 21.59 81.58 19.22 83.9"/><path class="cls-7" d="M66.53,37.32,66.45,21c0-11.59-.66-21-.91-21s-.9,9.41-.9,21l-.08,16.32c0,.86.44,1.55,1,1.55S66.53,38.18,66.53,37.32ZM66,35.42c0,1.06-.19,1.3-.42,1.3s-.41-.24-.41-1.3.19-1.91.41-1.91S66,34.36,66,35.42Z"/><path class="cls-7" d="M51.52,51.55,36.69,44.73c-10.5-4.9-19.31-8.28-19.42-8s8.15,4.79,18.66,9.69l14.75,7c.78.36,1.59.25,1.82-.24S52.29,51.92,51.52,51.55Zm-2-.28c1,.44,1.1.72,1,.93s-.39.27-1.35-.18-1.65-1-1.56-1.18S48.59,50.82,49.55,51.27Z"/><path class="cls-7" d="M78.32,53.1c.23.49,1,.6,1.82.24l14.76-7c10.5-4.9,18.75-9.48,18.65-9.69s-8.92,3.15-19.42,8L79.31,51.55C78.53,51.92,78.09,52.61,78.32,53.1Zm4.86-2.26c.09.2-.6.73-1.56,1.18s-1.26.38-1.35.18,0-.49,1-.93S83.08,50.63,83.18,50.84Z"/><path class="cls-7" d="M55.29,40.55l-7.57-8.79c-5.35-6.26-10-11-10.18-10.93s3.85,5.5,9.2,11.77l7.48,8.86c.4.46,1,.63,1.25.38S55.68,41,55.29,40.55Zm-1.19-.77c.49.58.5.79.38.9s-.34.06-.83-.51-.77-1.12-.66-1.23S53.61,39.21,54.1,39.78Z"/><path class="cls-7" d="M75.62,41.84c.29.25.85.08,1.25-.38l7.48-8.86c5.35-6.27,9.33-11.66,9.2-11.77S88.72,25.5,83.37,31.76L75.8,40.55C75.4,41,75.32,41.59,75.62,41.84Zm2.47-2.9c.12.11-.17.65-.66,1.23s-.7.61-.82.51-.11-.32.38-.9S78,38.84,78.09,38.94Z"/></svg>