<?xml version="1.0" encoding="utf-8"?>
<!-- Generator: Adobe Illustrator 24.0.3, SVG Export Plug-In . SVG Version: 6.00 Build 0)  -->
<svg version="1.1" id="Layer_1" xmlns="http://www.w3.org/2000/svg" xmlns:xlink="http://www.w3.org/1999/xlink" x="0px" y="0px"
	 viewBox="0 0 49.2 34" style="enable-background:new 0 0 49.2 34;" xml:space="preserve">
<style type="text/css">
	.st0{fill:#58848C;}
</style>
<title>icon-email</title>
<path class="st0" d="M46.7,0H2.5C1.1,0,0,1.1,0,2.5c0,0,0,0,0,0v29C0,32.9,1.2,34,2.5,34h44.1c1.4,0,2.5-1.1,2.5-2.5c0,0,0,0,0,0
	V2.5C49.2,1.1,48,0,46.7,0C46.7,0,46.7,0,46.7,0z M47.6,30.7c0.4,0.3,0.4,0.9,0,1.3c-0.2,0.2-0.4,0.3-0.7,0.3
	c-0.2,0-0.5-0.1-0.6-0.2L31.1,18l-5.6,5.2l-0.1,0.1c0,0-0.1,0.1-0.1,0.1c-0.1,0.1-0.2,0.1-0.3,0.1h-0.2l0,0h-0.2
	c-0.1,0-0.1,0-0.2-0.1c0,0-0.1,0-0.1,0l-0.1-0.1l-0.1-0.1l-5.5-5.1L3.3,32.1c-0.2,0.2-0.4,0.3-0.6,0.2c-0.3,0-0.5-0.1-0.7-0.3
	c-0.3-0.4-0.3-0.9,0-1.3l15.1-13.8L1.8,2.8C1.5,2.5,1.4,1.9,1.8,1.6S2.7,1.2,3,1.5l21.7,19.9L46.4,1.5c0.4-0.3,0.9-0.3,1.3,0.1
	s0.3,0.9-0.1,1.3l-15.3,14L47.6,30.7z"/>
</svg>
