<?xml version="1.0" encoding="utf-8"?>
<!-- Generator: Adobe Illustrator 24.0.3, SVG Export Plug-In . SVG Version: 6.00 Build 0)  -->
<svg version="1.1" id="Layer_1" xmlns="http://www.w3.org/2000/svg" xmlns:xlink="http://www.w3.org/1999/xlink" x="0px" y="0px"
	 viewBox="0 0 36.6 49.4" style="enable-background:new 0 0 36.6 49.4;" xml:space="preserve">
<style type="text/css">
	.st0{fill:#58848C;}
</style>
<title>icon-phone</title>
<path class="st0" d="M5.4,3.6c-0.5-0.8-0.5-1-0.5-1c0-0.3,0.3-0.5,0.5-0.6c1-0.6,2-1.2,3.1-1.7C8.7,0.2,9,0.1,9.3,0
	c0.1,0,0.2,0,0.3,0C9.8,0.1,9.9,0.2,10,0.2c0.4,0.3,7,11.2,7,11.2c0.2,0.3,0.2,0.5,0.2,0.8c0,0.2,0,0.4-0.1,0.6
	c0,0.1-0.1,0.2-0.1,0.2c-1.2,0.9-2.5,1.7-3.9,2.3c-0.2,0.1-0.4,0.1-0.6,0.1l0,0L12.1,15C11.8,14.5,5.4,3.6,5.4,3.6z"/>
<path class="st0" d="M32.4,48.5c-0.1,0-0.2,0-0.4,0c-0.1,0-0.2-0.1-0.2-0.2c-4.1-7.3-7-12.5-7.1-12.7c-0.1-0.1-0.1-0.3,0.1-0.4
	l4-2.2c0.2-0.1,0.4-0.2,0.7-0.1c0.1,0,0.2,0.1,0.3,0.1l6.8,11.6c0.1,0.1,0.1,0.3,0.2,0.5v0.2L32.4,48.5z"/>
<path class="st0" d="M23.4,36.5c-0.4,0-0.8,0-1.3,0c-0.1,0-0.3,0-0.4-0.1c-0.6-0.2-1.1-0.6-1.4-1.1c-2.4-3.1-4.7-6.3-6.8-9.7
	c-1-1.7-1.9-3.5-2.5-5.4c0,0-0.7-2.2,0-3.4l0.3-0.6l0,0c0,0-1.6-2.8-2.2-4S3.6,3,3.6,3C3,3.5,2.4,4,2,4.6C1.5,5.3,1,6,0.7,6.8
	C0,8.9-0.2,11,0.1,13.2C0.9,19,2.7,24.7,5.3,30c1.6,2.9,3.5,5.6,5.6,8.2c0.7,0.8,6.9,8.4,12.5,10.5c1.8,0.6,3.8,0.9,5.8,0.8
	c0.5-0.1,1-0.2,1.4-0.3L23.4,36.5z"/>
</svg>
