<?xml version="1.0" encoding="utf-8"?>
<!-- Generator: Adobe Illustrator 24.0.3, SVG Export Plug-In . SVG Version: 6.00 Build 0)  -->
<svg version="1.1" id="Layer_1" xmlns="http://www.w3.org/2000/svg" xmlns:xlink="http://www.w3.org/1999/xlink" x="0px" y="0px"
	 viewBox="0 0 39.7 49.6" style="enable-background:new 0 0 39.7 49.6;" xml:space="preserve">
<style type="text/css">
	.st0{fill:#58848C;}
</style>
<title>icon-pin</title>
<path class="st0" d="M19.8,0C8.9,0,0,8.5,0,18.9C0,22.5,1.1,26,3.1,29c0,0.1,0.1,0.1,0.1,0.1l2.2,2.7l14.5,17.8l14.6-17.9l2-2.5
	c0.1-0.1,0.1-0.1,0.2-0.2c2-3,3.1-6.5,3.1-10.1C39.6,8.5,30.8,0,19.8,0z M19.8,29.3c-6,0-10.9-4.9-10.9-10.9S13.8,7.5,19.8,7.5
	s10.9,4.9,10.9,10.9C30.7,24.4,25.9,29.3,19.8,29.3L19.8,29.3z"/>
<circle class="st0" cx="19.8" cy="18.4" r="5.4"/>
</svg>
